<?xml version="1.0" encoding="utf-8"?>
<!-- Generator: Adobe Illustrator 21.0.0, SVG Export Plug-In . SVG Version: 6.00 Build 0)  -->
<svg version="1.1" xmlns="http://www.w3.org/2000/svg" xmlns:xlink="http://www.w3.org/1999/xlink" x="0px" y="0px"
	 viewBox="0 0 68 41" style="enable-background:new 0 0 68 41;" xml:space="preserve">
<style type="text/css">
	.st0{fill:#EEF2F3;}
</style>
<g id="_x32_круг">
	<g id="Внешний_круг">
		<g id="Центр">
		</g>
		<g id="Линии_подсказки">
		</g>
	</g>
</g>
<g id="Лого">
	<g>
		<path class="st0" d="M38.3,28.4c-0.4,0-0.7,0.1-0.9,0.4c-0.2,0.3-0.3,0.6-0.3,1.2c0,0.5,0.1,0.9,0.3,1.2c0.2,0.3,0.5,0.4,0.9,0.4
			c0.8,0,1.2-0.5,1.2-1.5C39.5,28.9,39.1,28.4,38.3,28.4z"/>
		<path class="st0" d="M14.7,17.6H14V20h0.6c0.5,0,0.9-0.1,1.2-0.3c0.3-0.2,0.4-0.5,0.4-0.9c0-0.4-0.1-0.7-0.3-0.9
			C15.5,17.7,15.2,17.6,14.7,17.6z"/>
		<path class="st0" d="M42.4,28.4h-0.4v1.4h0.3c0.3,0,0.5-0.1,0.7-0.2c0.1-0.1,0.2-0.3,0.2-0.5c0-0.2-0.1-0.4-0.2-0.5
			C42.8,28.5,42.7,28.4,42.4,28.4z"/>
		<path class="st0" d="M32.7,18c-0.1-0.2-0.1-0.4-0.1-0.5c-0.1,0.5-0.5,1.6-1,3.5h2.1C33,19.2,32.7,18.2,32.7,18z"/>
		<path class="st0" d="M7.5,17.4c-0.1,0.5-0.5,1.6-1,3.5h2.1C8,19.2,7.7,18.2,7.7,18C7.6,17.7,7.5,17.6,7.5,17.4z"/>
		<path class="st0" d="M65.3,5.4v5.5c0,0-12.3,0-13.2,0c-8.8-15.4-29.3-13.5-36,0H2.7V5.4H0v29.9h2.8v-5.4c0,0,11.7,0,13.3,0
			C24,43.3,41.9,46,52,29.9c1.4,0,13.3,0,13.3,0v5.4H68V5.4H65.3z M31.5,16.2h2.1l2.8,8h-1.8L34,22.3h-2.9l-0.6,1.9h-1.8L31.5,16.2z
			 M9.5,24.2L9,22.3H6.1l-0.6,1.9H3.6l2.8-8h2.1l2.8,8H9.5z M17,20.7c-0.5,0.5-1.3,0.7-2.3,0.7H14v2.8h-1.7v-8h2.6
			c1,0,1.7,0.2,2.2,0.6c0.5,0.4,0.8,1,0.8,1.9C17.8,19.6,17.5,20.2,17,20.7z M25.8,32.2h-0.9V30c0-0.3,0-0.7,0.1-1.3h0l-2.1,3.5
			h-1.2v-4.6h0.9v2.2l0,0.6l0,0.7h0l2.1-3.5h1.2V32.2z M26.2,17.9l-2.1,6.3h-1.6l-1.9-6.3h0c0.1,1.3,0.1,2.1,0.1,2.6v3.7h-1.5v-8
			h2.3l1.9,6.1h0l2-6.1h2.3v8h-1.6v-3.8c0-0.2,0-0.4,0-0.6C26.2,19.6,26.2,19,26.2,17.9L26.2,17.9z M31.3,32.2h-0.9V30
			c0-0.1,0-0.2,0-0.4c0-0.1,0-0.5,0-1.1h0l-1.2,3.6h-0.9l-1.1-3.6h0c0,0.7,0.1,1.2,0.1,1.5v2.1h-0.9v-4.6h1.3l1.1,3.5h0l1.1-3.5h1.3
			V32.2z M35.6,32.2h-1v-3.8H33v3.8h-1v-4.6h3.6V32.2z M39.9,31.7c-0.4,0.4-0.9,0.6-1.6,0.6c-0.7,0-1.2-0.2-1.6-0.6
			c-0.4-0.4-0.6-1-0.6-1.7c0-0.8,0.2-1.3,0.6-1.7c0.4-0.4,0.9-0.6,1.6-0.6s1.2,0.2,1.6,0.6s0.6,1,0.6,1.7
			C40.5,30.7,40.3,31.3,39.9,31.7z M37.9,23.3c-0.6-0.7-0.9-1.7-0.9-3c0-0.8,0.2-1.6,0.5-2.2c0.3-0.6,0.7-1.1,1.3-1.4
			c0.6-0.3,1.2-0.5,2-0.5c0.8,0,1.6,0.2,2.3,0.6L42.5,18c-0.3-0.1-0.6-0.3-0.9-0.4c-0.3-0.1-0.6-0.2-0.9-0.2c-0.6,0-1.1,0.2-1.5,0.7
			c-0.3,0.5-0.5,1.1-0.5,2c0,1.8,0.7,2.7,2,2.7c0.6,0,1.2-0.1,2-0.4v1.4c-0.7,0.3-1.4,0.4-2.2,0.4C39.4,24.3,38.5,24,37.9,23.3z
			 M43.7,30.2c-0.3,0.3-0.7,0.4-1.3,0.4h-0.4v1.6h-1v-4.6h1.5c0.6,0,1,0.1,1.3,0.4c0.3,0.2,0.4,0.6,0.4,1.1
			C44.1,29.6,44,29.9,43.7,30.2z M47.5,28.4h-1.2v3.8h-1v-3.8h-1.2v-0.8h3.4V28.4z M48.9,17.6H46v1.8h2.7v1.4H46v2.1h2.9v1.4h-4.6
			v-8h4.6V17.6z M55.7,17.6h-2.2v6.6h-1.7v-6.6h-2.2v-1.4h6V17.6z M64.1,24.2h-1.5v-3.8c0-0.5,0-1.3,0.1-2.3h0l-3.7,6.1h-2v-8h1.5
			v3.9l0,1l-0.1,1.2h0l3.7-6.1h2V24.2z"/>
	</g>
</g>
</svg>
